<svg xmlns="http://www.w3.org/2000/svg" width="20" height="14" viewBox="0 0 20 14">
  <!-- Red and white stripes -->
  <rect width="20" height="1" y="0" fill="#cc0000"/>
  <rect width="20" height="1" y="1" fill="#ffffff"/>
  <rect width="20" height="1" y="2" fill="#cc0000"/>
  <rect width="20" height="1" y="3" fill="#ffffff"/>
  <rect width="20" height="1" y="4" fill="#cc0000"/>
  <rect width="20" height="1" y="5" fill="#ffffff"/>
  <rect width="20" height="1" y="6" fill="#cc0000"/>
  <rect width="20" height="1" y="7" fill="#ffffff"/>
  <rect width="20" height="1" y="8" fill="#cc0000"/>
  <rect width="20" height="1" y="9" fill="#ffffff"/>
  <rect width="20" height="1" y="10" fill="#cc0000"/>
  <rect width="20" height="1" y="11" fill="#ffffff"/>
  <rect width="20" height="1" y="12" fill="#cc0000"/>
  <rect width="20" height="1" y="13" fill="#ffffff"/>
  <!-- Blue canton -->
  <rect width="8" height="7" fill="#0052cc"/>
  <!-- Crescent and star -->
  <circle cx="4.5" cy="3.5" r="1.2" fill="#ffff00" fill-opacity="0"/>
  <circle cx="4.8" cy="3.5" r="1" fill="#ffff00"/>
  <polygon points="6.2,2.8 6.4,3.2 6.8,3.2 6.5,3.5 6.6,3.9 6.2,3.7 5.8,3.9 5.9,3.5 5.6,3.2 6,3.2" fill="#ffff00"/>
</svg>